<svg width="700" height="280" xmlns="http://www.w3.org/2000/svg">
    <!-- Screen 0 -->
    <g>
        <!-- Screen 0 box -->
        <rect x="20" y="30" width="250" height="230" fill="#e3f2fd" stroke="#1976d2" stroke-width="3" rx="5"/>

        <!-- Screen 0 label -->
        <rect x="90" y="15" width="100" height="28" fill="#1976d2" rx="4"/>
        <text x="140" y="35" font-size="17" font-weight="bold" text-anchor="middle" fill="white">Screen 0</text>

        <!-- Root Window -->
        <rect x="35" y="55" width="220" height="190" fill="#bbdefb" stroke="#1976d2" stroke-width="2" rx="3"/>
        <text x="145" y="78" font-size="16" font-weight="bold" text-anchor="middle">Root Window</text>

        <!-- Browser Window -->
        <rect x="55" y="95" width="180" height="60" fill="#ffffff" stroke="#666" stroke-width="2" rx="3"/>
        <text x="145" y="115" font-size="32" text-anchor="middle">🌐</text>
        <text x="145" y="145" font-size="17" text-anchor="middle">ブラウザ</text>

        <!-- Terminal Window -->
        <rect x="55" y="170" width="180" height="60" fill="#ffffff" stroke="#666" stroke-width="2" rx="3"/>
        <text x="145" y="190" font-size="32" text-anchor="middle">⌨️</text>
        <text x="145" y="220" font-size="17" text-anchor="middle">ターミナル</text>
    </g>

    <!-- Screen 1 -->
    <g>
        <!-- Screen 1 box -->
        <rect x="430" y="30" width="250" height="230" fill="#e3f2fd" stroke="#1976d2" stroke-width="3" rx="5"/>

        <!-- Screen 1 label -->
        <rect x="500" y="15" width="100" height="28" fill="#1976d2" rx="4"/>
        <text x="550" y="35" font-size="17" font-weight="bold" text-anchor="middle" fill="white">Screen 1</text>

        <!-- Root Window -->
        <rect x="445" y="55" width="220" height="190" fill="#bbdefb" stroke="#1976d2" stroke-width="2" rx="3"/>
        <text x="555" y="78" font-size="16" font-weight="bold" text-anchor="middle">Root Window</text>

        <!-- Text Editor Window -->
        <rect x="465" y="95" width="180" height="60" fill="#ffffff" stroke="#666" stroke-width="2" rx="3"/>
        <text x="555" y="115" font-size="32" text-anchor="middle">📝</text>
        <text x="555" y="145" font-size="17" text-anchor="middle">テキストエディタ</text>
    </g>

    <!-- Failed ReparentWindow (drawn last to be on top) -->
    <g>
        <line x1="235" y1="125" x2="445" y2="125" stroke="#d32f2f" stroke-width="3" stroke-dasharray="8,4"/>
        <polygon points="445,125 435,120 435,130" fill="#d32f2f"/>

        <!-- Text with background -->
        <rect x="280" y="78" width="140" height="35" fill="white" stroke="#d32f2f" stroke-width="2" rx="4"/>
        <text x="295" y="101" font-size="18" text-anchor="start" fill="#d32f2f">✕</text>
        <text x="315" y="101" font-size="14" text-anchor="start" fill="#d32f2f">ReparentWindow</text>
    </g>
</svg>
